<svg xmlns="http://www.w3.org/2000/svg" viewBox="0 0 64 64" role="img" aria-labelledby="title">
  <title id="title">ДиспетчерЗаявок</title>
  <rect width="64" height="64" rx="14" fill="#15243b"/>
  <path d="M19 14h20l8 8v28H19V14z" fill="#ffffff"/>
  <path d="M39 14v10h8" fill="#dce9ff"/>
  <path d="M25 29h16M25 36h16M25 43h10" stroke="#15243b" stroke-width="4" stroke-linecap="round"/>
  <path d="M14 30c0-7 5-12 12-12h2l-4-4 4-4 11 11-11 11-4-4 4-4h-2c-4 0-7 3-7 7v2h-5v-3z" fill="#38d5a7"/>
  <path d="M50 34c0 7-5 12-12 12h-2l4 4-4 4-11-11 11-11 4 4-4 4h2c4 0 7-3 7-7v-2h5v3z" fill="#1f6feb"/>
</svg>
